<svg id="fig-vramfit-distribution-shoulders" xmlns="http://www.w3.org/2000/svg" viewBox="0 0 760 400" width="760" height="400" role="img" aria-label="Two probability distributions over the next word. Both peak on the same top token, so greedy decoding picks the same word from either. The shoulders behind the peak differ, and that difference is what KL divergence measures.">
  <style>/* fig-tokens v1: generated by src/alberto_codes_site/figures.py, do not edit */
    svg:root { --fig-bg: #f6f8fa; --fig-ink: #1f2328; --fig-muted: #59636e; --fig-grid: #818b98; --fig-accent-1: #0969da; --fig-accent-2: #a85200; --fig-good: #1a7f37; --fig-bad: #cf222e; --fig-accent-3: #8250df; --fig-accent-1-soft: #ddf4ff; --fig-accent-2-soft: #fff1e5; --fig-accent-3-soft: #fbefff; --fig-good-soft: #dafbe1; --fig-bad-soft: #ffebe9; --fig-muted-soft: #e6eaef; }
    @media (prefers-color-scheme: dark) {
      svg:root { --fig-bg: #1f2020; --fig-ink: #cccccc; --fig-muted: #8f8f8f; --fig-grid: #707070; --fig-accent-1: #6cb6ff; --fig-accent-2: #d9894a; --fig-good: #7fb069; --fig-bad: #e07a5f; --fig-accent-3: #b083f0; --fig-accent-1-soft: #1d3a5c; --fig-accent-2-soft: #4a3418; --fig-accent-3-soft: #35284f; --fig-good-soft: #233d26; --fig-bad-soft: #4a2620; --fig-muted-soft: #333638; }
    }
  </style>
  <rect x="0" y="0" width="100%" height="100%" rx="12" style="fill:var(--fig-bg)"/>
  <defs>
    <linearGradient id="vramfit-distribution-shoulders-fillA" x1="0" y1="0" x2="0" y2="1">
      <stop offset="0%" stop-opacity="0.38" style="stop-color:var(--fig-accent-1)"/>
      <stop offset="100%" stop-opacity="0.03" style="stop-color:var(--fig-accent-1)"/>
    </linearGradient>
    <linearGradient id="vramfit-distribution-shoulders-fillB" x1="0" y1="0" x2="0" y2="1">
      <stop offset="0%" stop-opacity="0.30" style="stop-color:var(--fig-accent-2)"/>
      <stop offset="100%" stop-opacity="0.02" style="stop-color:var(--fig-accent-2)"/>
    </linearGradient>
  </defs>

  <text x="24" y="28" font-family="ui-sans-serif, system-ui, sans-serif" font-size="15" font-weight="700" style="fill:var(--fig-muted)">What the model actually produces: a shape, not a word</text>

  <!-- axes -->
  <line x1="60" y1="300" x2="716" y2="300" stroke-width="1.5" style="stroke:var(--fig-grid)"/>
  <line x1="60" y1="80" x2="60" y2="300" stroke-width="1.5" style="stroke:var(--fig-grid)"/>
  <text x="24" y="72" font-family="ui-sans-serif, system-ui, sans-serif" font-size="12" style="fill:var(--fig-muted)">probability</text>

  <!-- distribution A: the original -->
  <path d="M60,300 C120,299 150,296 185,288 C215,281 235,262 252,196 C262,152 268,110 278,110 C288,110 294,152 304,196 C321,262 341,285 372,292 C420,300 500,300 560,300 C620,300 680,300 716,300 L716,300 L60,300 Z" fill="url(#vramfit-distribution-shoulders-fillA)" stroke-width="2.5" style="stroke:var(--fig-accent-1)"/>

  <!-- distribution B: a quantization with heavier shoulders -->
  <path d="M60,300 C120,296 150,288 185,272 C215,258 233,244 252,200 C262,158 268,116 278,116 C288,116 294,158 304,200 C324,246 348,258 382,268 C440,283 505,289 566,293 C630,297 686,299 716,300 L716,300 L60,300 Z" fill="url(#vramfit-distribution-shoulders-fillB)" stroke-width="2.5" stroke-dasharray="7 4" style="stroke:var(--fig-accent-2)"/>

  <!-- shared peak marker -->
  <line x1="278" y1="104" x2="278" y2="300" stroke-width="1.2" stroke-dasharray="3 4" opacity="0.7" style="stroke:var(--fig-ink)"/>
  <circle cx="278" cy="110" r="4.5" style="fill:var(--fig-accent-1)"/>
  <circle cx="278" cy="116" r="4.5" style="fill:var(--fig-accent-2)"/>
  <text x="278" y="96" text-anchor="middle" font-family="ui-sans-serif, system-ui, sans-serif" font-size="13" font-weight="700" style="fill:var(--fig-ink)">same top word</text>
  <text x="278" y="320" text-anchor="middle" font-family="ui-sans-serif, system-ui, sans-serif" font-size="11.5" style="fill:var(--fig-muted)">greedy decoding only ever shows you this</text>

  <!-- legend, clear of the curve -->
  <line x1="486" y1="104" x2="518" y2="104" stroke-width="2.5" style="stroke:var(--fig-accent-1)"/>
  <text x="526" y="108" font-family="ui-sans-serif, system-ui, sans-serif" font-size="12.5" style="fill:var(--fig-ink)">the original, full precision</text>
  <line x1="486" y1="128" x2="518" y2="128" stroke-width="2.5" stroke-dasharray="7 4" style="stroke:var(--fig-accent-2)"/>
  <text x="526" y="132" font-family="ui-sans-serif, system-ui, sans-serif" font-size="12.5" style="fill:var(--fig-ink)">a compressed copy</text>

  <!-- shoulder callout -->
  <path d="M452,268 L452,196 L512,196" fill="none" stroke-width="1.4" opacity="0.85" style="stroke:var(--fig-accent-2)"/>
  <text x="520" y="192" font-family="ui-sans-serif, system-ui, sans-serif" font-size="12.5" font-weight="600" style="fill:var(--fig-accent-2)">the shoulders differ</text>
  <text x="520" y="210" font-family="ui-sans-serif, system-ui, sans-serif" font-size="11.5" style="fill:var(--fig-muted)">this is what KL measures</text>
  <text x="520" y="226" font-family="ui-sans-serif, system-ui, sans-serif" font-size="11.5" style="fill:var(--fig-muted)">and what sampling reaches</text>

  <text x="716" y="340" text-anchor="end" font-family="ui-sans-serif, system-ui, sans-serif" font-size="11.5" style="fill:var(--fig-muted)">every possible next word, most likely first →</text>

  <text x="24" y="372" font-family="ui-sans-serif, system-ui, sans-serif" font-size="12" style="fill:var(--fig-muted)">Two copies can agree on the top word often enough to fool a spot check,</text>
  <text x="24" y="390" font-family="ui-sans-serif, system-ui, sans-serif" font-size="12" style="fill:var(--fig-muted)">while the shape behind it drifts. Only measurement sees the rest.</text>
</svg>
